<?xml version="1.0"?>
<svg width="520" height="300" xmlns="http://www.w3.org/2000/svg" xmlns:svg="http://www.w3.org/2000/svg">
 <style type="text/css">.st0{fill:#808285;}
	.st1{fill:#F26522;}
	.st2{fill:#58595B;}</style>

 <g>
  <title>Layer 1</title>
  <path fill="black" id="svg_1" d="m74.400002,87.400002c-16.200005,-2.599998 -21.400002,-3.800003 -21.400002,-9.599998c0,-4.100006 2.900002,-9 16.800003,-9c9.099998,0 17.299995,1.899994 23.599998,5.299995l0,-4.299995c0,-10.700005 -10.099998,-17.200005 -27,-17.200005c-17,0 -35.300003,8.599998 -35.300003,27.400002c0,11.5 6.300003,17.599998 20.5,19.599998c16.599998,2.300003 21.400002,4 21.400002,10.300003c0,9.099998 -11.900002,9.099998 -16.300003,9.099998c-11,0 -18.599998,-2.699997 -23.699997,-5.5l0,4c0,4.399994 0,17.800003 28.199997,17.800003c21,0 34.100006,-10.199997 34.100006,-26.5c0.099991,-14.800003 -11.300003,-19.800003 -20.900002,-21.400002z" class="st0"/>
  <path fill="black" id="svg_2" d="m328.600006,52.599998c-27.899994,0 -43.299988,15.800003 -43.299988,44.5l0,43.900002c0,12.199997 4.5,17.5 14.899994,17.5l7.799988,0l0,-38.099998c0,0 0.200012,2.900002 4.900024,8.299995c5.5,5.600006 10.299988,6.5 19,6.5c21.899994,0 36.599976,-17.299995 36.599976,-43.099998c0,-23.299995 -16.399994,-39.5 -39.899994,-39.5zm1.600006,62.900002c-9.799988,0 -19.100006,-6.199997 -19.100006,-23.800003c0,-12.199997 8.100006,-19.799995 15.899994,-19.799995c11.800018,0 18.900024,5.400002 18.900024,23.199997c-0.000031,12.400002 -6.700012,20.400002 -15.700012,20.400002z" class="st0"/>
  <path id="svg_3" d="m400.799988,103.699997l0,-60.199997c0,-12.200001 -4.600006,-17.200001 -15.899994,-17.200001l-7.5,0l0,81.600002c0,19.200005 13.299988,26.099998 25.799988,26.099998c4.800018,0 16.100006,-1 16.100006,-10.699997l0,-7.300003l-3.700012,0c-6.399963,0 -14.799988,-1.300003 -14.799988,-12.300003z" class="st0"/>
  <path fill="black" id="svg_4" d="m483,55l-11.399994,0c-2.100006,15.800003 -8.300018,37.099998 -14.399994,49.5l-2.5,5.099998l-2.200012,-5.199997c-4.5,-10.300003 -10.299988,-26.599998 -13.100006,-39.700005c-1.399994,-6.399994 -7.899994,-9.699997 -13.600006,-9.699997l-11.799988,0c4,21.400002 17.799988,56.099998 29.600006,73.600006l0.799988,1.199997l-0.600006,1.300003c-3.5,8 -8.099976,11.299988 -16.199982,12l-10,0.699997l0,4.5c0,8.599991 7.699982,11.699997 14.299988,11.699997c16.100006,0 21.300018,-3.800003 44.200012,-47.800003c9.300018,-17.799995 16.800018,-41.5 16.800018,-49.299995c-0.300049,-3.300003 -1.300049,-7.900002 -9.900024,-7.900002z" class="st0"/>
  <path id="svg_5" d="m115,45.099998c6.800003,0 12.300003,-5.199997 12.300003,-11.599998c0,-6.400002 -5.5,-11.6 -12.300003,-11.6c-6.899994,0 -12.5,5.199999 -12.5,11.6c0,6.400002 5.600006,11.599998 12.5,11.599998z" class="st1"/>
  <path fill="black" id="svg_6" d="m187.600006,72.5c9.199997,0 13.900009,5.599998 13.900009,16.5l0,29.599998c0,10.599998 3.799988,14.099998 15.199997,14.099998l7.399994,0l0,-43.399994c0,-13.900002 7.300018,-16.800003 13.300018,-16.800003c10.099976,0 14.5,5.300003 14.5,17.300003l0,28.899994c0,9.199997 2.599976,14.100006 16.099976,14.100006l7.300018,0l0,-42.5c0,-24.300003 -12.700012,-37.700005 -35.900024,-37.700005c-11.199982,0 -20.5,8.300003 -23.699997,13.599998l-2.699997,4.400002l-1.899994,-4.799995c-2.200012,-5.5 -10.800003,-13.100002 -23.100006,-13.100002c-8.300003,0 -15.399994,1.599998 -21.199997,4.799999c-10.800003,5.900002 -16.5,17 -16.5,32.099998l0,12.200005c0,7.599998 -3.5,11.5 -11.199997,12.199997l-0.200012,0l-0.199997,0c-7.699997,-0.599998 -11.300003,-4.5 -11.300003,-12.199997l0,-27c0,-13.5 -4.099991,-17.200005 -19,-17.200005l-4.399994,0l0,48.400002c0,7.300003 1.800003,12.900002 5.199997,16.699997c5,5.5 15.699997,11.400009 29.400009,11.400009l0.599991,0c3.900009,0 7.199997,-0.5 10,-1.200012l0.600006,-0.099991c6.800003,-1.699997 10.800003,-4.100006 13,-5.699997l0.599991,-0.400009c2.800003,-2.099991 10.300003,-9.699997 10.400009,-20l0,-16.699997c0.300003,-6.900002 1.899994,-17.5 13.800003,-17.5z" class="st0"/>
  <polygon id="svg_7" points="181.6999969482422,86.4000015258789 181.6999969482422,86.4000015258789 181.6999969482422,86.4000015258789 " class="st2"/>
  <g id="svg_8">
   <path id="svg_9" d="m161.099976,245.899994l-12.599976,0c1.399963,9.800018 10.299988,15.899994 21.699951,15.899994c8,0 17.5,-1.599976 23.700012,-7.299988l0.700012,0l0,6c0,9.899994 -6.700012,17.5 -28,17.5c-19.200012,0 -38,-15.200012 -38,-38.899994c0,-25.800003 15.799988,-42 37.900024,-42c16.099976,0 31,11.5 31,30c-0.099976,14.199997 -10.799988,18.799988 -36.400024,18.799988zm3.600037,-32.699997c-9.299988,0 -15.799988,7.600006 -16.200012,16.5l-0.099976,2.600006l8.599976,0c18.200012,0 22.400024,-2 22.400024,-7.5c-0.100037,-7.699997 -5.800049,-11.600006 -14.700012,-11.600006z" class="st1"/>
   <path id="svg_10" d="m237.400024,278c-20.400024,0 -36,-17.799988 -36,-39c0,-25.399994 12.299988,-41.899994 34.799988,-41.899994c7.700012,0 16.200012,5.399994 19.200012,12.199997l0,-36.199997l5.900024,0c9.199951,0 13.199951,5.300003 13.199951,13l0,54.5c0,22.5 -10.599976,37.399994 -37.099976,37.399994zm-1,-64.599991c-9.799988,0 -16.099976,9.499985 -16.099976,21.899994c0,16.099991 8.299988,26.499985 19.399963,26.499985c10.799988,0 15.5,-8 15.5,-22.099991c0,-19.299988 -8.5,-26.299988 -18.799988,-26.299988z" class="st1"/>
   <path id="svg_11" d="m297.900024,193.400009c-6.200012,0 -11.200012,-5.200012 -11.200012,-11.300003c0,-6.200012 5,-11.200012 11.200012,-11.200012c6.200012,0 11.299988,5 11.299988,11.200012c0,6.199997 -5.100037,11.300003 -11.299988,11.300003zm13.599976,83.599991c-14.900024,0 -23.099976,-8.5 -23.099976,-24.100006c0,-4.399994 0,-52.299988 0,-52.299988l5.399963,0c8.600037,0 13.799988,4.599991 13.799988,14.299988l0,36.100006c0,7.700012 3.300049,10.200012 11.800049,10.200012l3.599976,0l0,4.199982c0,8.300018 -3.299988,11.600006 -11.5,11.600006z" class="st1"/>
   <path id="svg_12" d="m332.900024,186.699997c2.599976,-3 6,-5.299988 9,-5.299988l4.400024,0l0,17.499985l26.799988,0l0,7.900009c0,4 -3.600037,9.199997 -11.5,9.199997l-15.299988,0l0,30.300018c0,10 4.399963,13.899994 12.199951,13.899994c6.200012,0 10.900024,-0.899994 13.900024,-2.700012l0.700012,0l0,6.899994c0,7.900024 -5.700012,12.900024 -16.900024,12.900024c-19.5,0 -29,-10.600006 -29,-28.700012l0,-46.600006c0.099976,-7.599991 1.5,-10.399994 5.700012,-15.300003z" class="st1"/>
  </g>
 </g>
</svg>